[Header]
FileType HTR
DataType HTRS
FileVersion 1
NumSegments 22
NumFrames 8
DataFrameRate 24
EulerRotationOrder ZYX
CalibrationUnits mm
RotationUnits Degrees
GlobalAxisofGravity Y
BoneLengthAxis Y
ScaleFactor 1.0
[SegmentNames&Hierarchy]
reference	GLOBAL
Hips	reference
Spine	Hips
Spine1	Spine
Neck	Spine1
Head	Neck
LeftShoulder	Spine1
LeftArm	LeftShoulder
LeftForeArm	LeftArm
LeftHand	LeftForeArm
RightShoulder	Spine1
RightArm	RightShoulder
RightForeArm	RightArm
RightHand	RightForeArm
LeftUpLeg	Hips
LeftLeg	LeftUpLeg
LeftFoot	LeftLeg
LeftToeBase	LeftFoot
RightUpLeg	Hips
RightLeg	RightUpLeg
RightFoot	RightLeg
RightToeBase	RightFoot
[BasePosition]
reference	0	0	0	0	0	0	1
Hips	0	0	0	0	0	0	1
Spine	0	0	0	0	-0	90	1
Spine1	0	0	0	0	0	0	1
Neck	0	0	0	-7.352430803	-7.352430803	90	1
Head	0	0	0	0	-0	90	1
LeftShoulder	0	0	0	0	0	0	1
LeftArm	0	0	0	0	0	0	1
LeftForeArm	0	0	0	0	0	0	1
LeftHand	0	0	0	0	0	0	1
RightShoulder	0	0	0	0	-0	180	1
RightArm	0	0	0	0	-0	180	1
RightForeArm	0	0	0	0	-0	180	1
RightHand	0	0	0	0	-0	180	1
LeftUpLeg	0	0	0	0	-0	-90	1
LeftLeg	0	0	0	0	-0	-90	1
LeftFoot	0	0	0	66.57150701	-66.57150701	-90	1
LeftToeBase	0	0	0	0	-90	0	1
RightUpLeg	0	0	0	0	-0	-90	1
RightLeg	0	0	0	0	-0	-90	1
RightFoot	0	0	0	66.57150701	-66.57150701	-90	1
RightToeBase	0	0	0	0	-90	0	1
[reference]
57	0	0	0	0	-0	0	1.0
58	0	0	0	0	-0	0	1.0
59	0	0	0	0	-0	0	1.0
60	0	0	0	0	-0	0	1.0
61	0	0	0	0	-0	0	1.0
62	0	0	0	0	-0	0	1.0
63	0	0	0	0	-0	0	1.0
64	0	0	0	0	-0	0	1.0
[Hips]
57	7.056419373	8.893353462	7.8832798	4.532663822	-141.5697479	3.747656345	1.0
58	7.275555134	8.873569489	8.035612106	3.393013	-141.7545013	4.20404911	1.0
59	7.398819923	8.851884842	8.185441017	0.03375865892	-139.3388367	5.066032887	1.0
60	7.671194077	8.787475586	8.418390274	2.53320694	-139.3911591	3.254454851	1.0
61	7.971649647	8.683572769	8.663169861	3.080352783	-139.4636536	2.908096313	1.0
62	8.220126152	8.554476738	8.866075516	0.3421566486	-138.3408203	2.787641525	1.0
63	8.526127815	8.492554665	9.156283379	0.3833505213	-138.6005859	3.275413752	1.0
64	8.740180969	8.482042313	9.40349102	0.2089653015	-139.8294983	3.198177338	1.0
[Spine]
57	0	0.7478299737	0	-11.89993191	5.562610626	-89.2519455	1.0
58	0	0.7478299737	0	-10.94081306	6.879954338	-88.43356323	1.0
59	0	0.7478299737	0	-10.40179634	6.494410515	-85.96577454	1.0
60	0	0.7478299737	0	-11.50219822	7.404362679	-88.18707275	1.0
61	0	0.7478299737	0	-11.23125935	7.648143768	-88.54804993	1.0
62	0	0.7478299737	0	-9.954000473	7.14140892	-87.50028992	1.0
63	0	0.7478299737	0	-8.980279922	6.023273468	-88.16545868	1.0
64	0	0.7478299737	0	-9.504169464	5.409975052	-87.11711884	1.0
[Spine1]
57	0	2.049309969	0	4.933392525	1.795696139	0.7790343761	1.0
58	0	2.049309969	0	4.269526482	2.379087925	0.8222051859	1.0
59	0	2.049309969	0	5.430462837	2.116993427	-1.057578444	1.0
60	0	2.049309969	0	5.725538254	2.433071613	-0.412492305	1.0
61	0	2.049309969	0	6.094290257	2.520046711	-0.3390594125	1.0
62	0	2.049309969	0	8.163117409	2.150078535	-0.02532889321	1.0
63	0	2.049309969	0	9.650539398	1.935822725	0.4370568097	1.0
64	0	2.049309969	0	13.50158978	1.800378561	0.5639537573	1.0
[Neck]
57	0	2.231709957	0	-7.845936298	12.11504269	-86.98654938	1.0
58	0	2.231709957	0	-5.623876095	12.10438442	-86.72348022	1.0
59	0	2.231709957	0	-5.624719143	15.17485046	-86.95883179	1.0
60	0	2.231709957	0	-5.616984367	14.55659676	-87.02156067	1.0
61	0	2.231709957	0	-5.741652966	14.74167824	-87.28166962	1.0
62	0	2.231709957	0	-5.828625679	15.17374325	-87.42208099	1.0
63	0	2.231709957	0	-5.937741756	16.46117783	-87.61564636	1.0
64	0	2.231709957	0	-6.193471909	17.88735199	-87.82772064	1.0
[Head]
57	0	1.413589954	0.1823999882	-3.833741903	5.277181149	-93.84599304	1.0
58	0	1.413589954	0.1823999882	-4.678117275	4.167373657	-94.90306091	1.0
59	0	1.413589954	0.1823999882	-2.318907261	0.276076436	-94.94863129	1.0
60	0	1.413589954	0.1823999882	-2.76254797	0.5063061714	-94.82324219	1.0
61	0	1.413589954	0.1823999882	-3.699976683	0.3850457668	-93.76178741	1.0
62	0	1.413589954	0.1823999882	-3.756668568	0.3519225717	-93.07615662	1.0
63	0	1.413589954	0.1823999882	-4.999846935	0.4641622305	-93.32199097	1.0
64	0	1.413589954	0.1823999882	-5.265593052	0.7278043032	-94.4108429	1.0
[LeftShoulder]
57	0.3649300039	1.825889945	-0.04271000251	-5.033055782	-7.973026752	5.078601837	1.0
58	0.3649300039	1.825889945	-0.04271000251	-2.027225018	-7.962973595	4.48853302	1.0
59	0.3649300039	1.825889945	-0.04271000251	-5.04015255	-6.979151249	5.433140755	1.0
60	0.3649300039	1.825889945	-0.04271000251	-6.517075062	-6.27633667	6.019289494	1.0
61	0.3649300039	1.825889945	-0.04271000251	-6.548919678	-6.161689281	5.351887226	1.0
62	0.3649300039	1.825889945	-0.04271000251	-7.276420593	-6.937695503	4.589828014	1.0
63	0.3649300039	1.825889945	-0.04271000251	-8.818466187	-7.298491001	3.741509676	1.0
64	0.3649300039	1.825889945	-0.04271000251	-5.542057991	-8.459132195	0.994301796	1.0
[LeftArm]
57	1.24003005	0	0	11.90923786	19.28771973	-69.55399323	1.0
58	1.24003005	0	0	10.24124146	16.36033058	-67.30084991	1.0
59	1.24003005	0	0	10.78701973	17.74974632	-66.7853775	1.0
60	1.24003005	0	0	14.50251675	16.33105469	-69.10523987	1.0
61	1.24003005	0	0	-8.516591072	25.99712563	-45.38983536	1.0
62	1.24003005	0	0	-8.510498047	25.03907967	-45.01589966	1.0
63	1.24003005	0	0	-8.715126991	24.1215992	-45.11458588	1.0
64	1.24003005	0	0	-9.561209679	19.2842598	-45.11950684	1.0
[LeftForeArm]
57	2.847419977	0	0	-33.78503418	-7.988963127	-12.79543972	1.0
58	2.847419977	0	0	-33.78503418	-7.988963127	-12.79543972	1.0
59	2.847419977	0	0	-33.78503418	-7.988963127	-12.79543972	1.0
60	2.847419977	0	0	-33.78503418	-7.988963127	-12.79543972	1.0
61	2.847419977	0	0	-33.78503418	-7.988963127	-12.79543972	1.0
62	2.847419977	0	0	-33.78503418	-7.988963127	-12.79543972	1.0
63	2.847419977	0	0	-33.78503418	-7.988963127	-12.79543972	1.0
64	2.847419977	0	0	-33.78503418	-7.988963127	-12.79543972	1.0
[LeftHand]
57	2.258270025	0	0	1.929972768	37.83041763	3.036171675	1.0
58	2.258270025	0	0	1.929972768	37.83041763	3.036171675	1.0
59	2.258270025	0	0	1.929972768	37.83041763	3.036171675	1.0
60	2.258270025	0	0	1.929972768	37.83041763	3.036171675	1.0
61	2.258270025	0	0	1.929972768	37.83041763	3.036171675	1.0
62	2.258270025	0	0	1.929972768	37.83041763	3.036171675	1.0
63	2.258270025	0	0	1.929972768	37.83041763	3.036171675	1.0
64	2.258270025	0	0	1.929972768	37.83041763	3.036171675	1.0
[RightShoulder]
57	-0.3646599948	1.825889945	-0.04271000251	-10.13721085	11.59138584	-182.3140259	1.0
58	-0.3646599948	1.825889945	-0.04271000251	-10.25757599	12.29349232	-182.2809448	1.0
59	-0.3646599948	1.825889945	-0.04271000251	-10.59060287	12.11041451	-182.489975	1.0
60	-0.3646599948	1.825889945	-0.04271000251	-11.99650002	10.90205002	-182.2286682	1.0
61	-0.3646599948	1.825889945	-0.04271000251	-12.25600815	10.78345394	-181.7609406	1.0
62	-0.3646599948	1.825889945	-0.04271000251	-9.901823044	12.60928822	-180.0828857	1.0
63	-0.3646599948	1.825889945	-0.04271000251	-10.35870075	11.94882011	-180.7082825	1.0
64	-0.3646599948	1.825889945	-0.04271000251	-12.64584827	12.47127914	-178.7277832	1.0
[RightArm]
57	-1.24003005	0	0	73.91299438	10.63909626	-94.32286072	1.0
58	-1.24003005	0	0	75.40575409	11.57821751	-93.94904327	1.0
59	-1.24003005	0	0	75.69775391	11.43584251	-93.34751892	1.0
60	-1.24003005	0	0	76.0282135	10.01731586	-93.22903442	1.0
61	-1.24003005	0	0	73.82010651	8.893640518	-93.72343445	1.0
62	-1.24003005	0	0	69.588974	8.725790977	-96.48667145	1.0
63	-1.24003005	0	0	67.16752625	8.374677658	-96.8735199	1.0
64	-1.24003005	0	0	62.6975708	6.732593536	-100.2678986	1.0
[RightForeArm]
57	-2.847419977	0	0	-3.285036802	39.52613449	161.5742493	1.0
58	-2.847419977	0	0	-2.952352524	37.52373123	162.508728	1.0
59	-2.847419977	0	0	-2.280501366	35.58158112	163.5250244	1.0
60	-2.847419977	0	0	-2.190253258	33.57801819	163.651062	1.0
61	-2.847419977	0	0	-2.228666067	31.42856979	163.9795837	1.0
62	-2.847419977	0	0	-4.643511772	29.71648026	163.7762451	1.0
63	-2.847419977	0	0	-2.312940598	26.49700546	168.2767639	1.0
64	-2.847419977	0	0	0.3952100277	20.83773804	173.1327209	1.0
[RightHand]
57	-2.258270025	0	0	2.362936735	13.83406448	-188.4187622	1.0
58	-2.258270025	0	0	1.894089699	12.93720627	-189.9931183	1.0
59	-2.258270025	0	0	1.981759548	12.90604782	-189.329834	1.0
60	-2.258270025	0	0	1.993872046	12.92827129	-186.8542938	1.0
61	-2.258270025	0	0	1.659672499	13.09398174	-185.6244049	1.0
62	-2.258270025	0	0	-1.165079474	11.51650333	-188.5201569	1.0
63	-2.258270025	0	0	-0.4076218903	10.62491798	-189.2445221	1.0
64	-2.258270025	0	0	0.7240754366	10.52932549	-188.7304993	1.0
[LeftUpLeg]
57	0.9119900465	0	0	-8.580036163	-1.122338772	93.18874359	1.0
58	0.9119900465	0	0	-8.869499207	3.4477911	92.08427429	1.0
59	0.9119900465	0	0	-7.541181564	-5.663607597	94.4156189	1.0
60	0.9119900465	0	0	-11.42719364	-8.221946716	95.02416992	1.0
61	0.9119900465	0	0	-14.35393047	-7.501612186	95.40115356	1.0
62	0.9119900465	0	0	-16.05659866	-9.487214088	97.18435669	1.0
63	0.9119900465	0	0	-16.67715454	-12.24237633	97.88659668	1.0
64	0.9119900465	0	0	-15.61678791	-19.95004463	103.2436752	1.0
[LeftLeg]
57	0	-4.371409893	0	-2.287996769	-1.92148447	86.94786835	1.0
58	0	-4.371409893	0	-2.631792307	1.011857033	89.80216217	1.0
59	0	-4.371409893	0	-4.317420006	4.097206116	88.72470093	1.0
60	0	-4.371409893	0	-4.64552784	4.166493416	87.23509216	1.0
61	0	-4.371409893	0	-4.646415234	3.62998724	87.58433533	1.0
62	0	-4.371409893	0	-4.536446571	5.268141747	87.67372894	1.0
63	0	-4.371409893	0	-4.645924091	9.285197258	87.62306213	1.0
64	0	-4.371409893	0	2.051054955	6.569174767	85.86695862	1.0
[LeftFoot]
57	0	-3.918009996	0	-72.8133316	109.1695175	-39.10154724	1.0
58	0	-3.918009996	0	-93.69876862	105.2342682	-63.80524063	1.0
59	0	-3.918009996	0	-78.50579834	106.7976074	-49.45439148	1.0
60	0	-3.918009996	0	-68.44850159	108.9747772	-39.86726761	1.0
61	0	-3.918009996	0	-70.59512329	110.1889572	-44.05227661	1.0
62	0	-3.918009996	0	-69.04878235	109.4973755	-42.81116486	1.0
63	0	-3.918009996	0	-60.91439819	105.5619659	-33.86729813	1.0
64	0	-3.918009996	0	-64.8518219	100.8255005	-34.93653488	1.0
[LeftToeBase]
57	0	-0.5927900076	1.367989898	0	0	0	1.0
58	0	-0.5927900076	1.367989898	0	0	0	1.0
59	0	-0.5927900076	1.367989898	0	0	0	1.0
60	0	-0.5927900076	1.367989898	0	0	0	1.0
61	0	-0.5927900076	1.367989898	0	0	0	1.0
62	0	-0.5927900076	1.367989898	0	0	0	1.0
63	0	-0.5927900076	1.367989898	0	0	0	1.0
64	0	-0.5927900076	1.367989898	0	0	0	1.0
[RightUpLeg]
57	-0.9119900465	0	0	-0.7146792412	-14.08567238	96.26319122	1.0
58	-0.9119900465	0	0	3.000607014	-10.92242432	95.90522003	1.0
59	-0.9119900465	0	0	9.734052658	-9.833675385	94.33418274	1.0
60	-0.9119900465	0	0	8.083806038	-12.86268997	95.12136078	1.0
61	-0.9119900465	0	0	8.384023666	-14.82594109	95.21884155	1.0
62	-0.9119900465	0	0	9.340715408	-13.87042999	96.2776947	1.0
63	-0.9119900465	0	0	10.62189198	-11.86322212	96.78068542	1.0
64	-0.9119900465	0	0	4.879845619	-5.340672493	96.54255676	1.0
[RightLeg]
57	0	-4.371409893	0	23.75616074	-1.314368129	80.94718933	1.0
58	0	-4.371409893	0	26.15610886	6.3893466	84.60907745	1.0
59	0	-4.371409893	0	23.33208847	25.36808395	92.8092804	1.0
60	0	-4.371409893	0	23.0840435	-1.771252513	85.49143982	1.0
61	0	-4.371409893	0	19.24715805	-0.7197206616	86.4048996	1.0
62	0	-4.371409893	0	15.94485855	-0.3985268176	88.59719849	1.0
63	0	-4.371409893	0	14.20537758	-0.1691737324	89.64541626	1.0
64	0	-4.371409893	0	20.52278328	1.882250071	91.79892731	1.0
[RightFoot]
57	0	-3.918009996	0	35.41132736	55.67850876	73.35119629	1.0
58	0	-3.918009996	0	89.91925812	69.7522049	135.8918304	1.0
59	0	-3.918009996	0	104.6257248	64.15963745	144.2119446	1.0
60	0	-3.918009996	0	116.5596619	60.00634003	161.910553	1.0
61	0	-3.918009996	0	114.9525223	64.21447754	167.635849	1.0
62	0	-3.918009996	0	108.7248993	68.66633606	170.0541992	1.0
63	0	-3.918009996	0	36.95793915	60.70908356	89.02062225	1.0
64	0	-3.918009996	0	79.282547	73.23548889	134.5266113	1.0
[RightToeBase]
57	0	-0.5927900076	1.367989898	0	0	0	1.0
58	0	-0.5927900076	1.367989898	0	0	0	1.0
59	0	-0.5927900076	1.367989898	0	0	0	1.0
60	0	-0.5927900076	1.367989898	0	0	0	1.0
61	0	-0.5927900076	1.367989898	0	0	0	1.0
62	0	-0.5927900076	1.367989898	0	0	0	1.0
63	0	-0.5927900076	1.367989898	0	0	0	1.0
64	0	-0.5927900076	1.367989898	0	0	0	1.0
[EndOfFile]
